<?xml version="1.0" encoding="iso-8859-1"?>
<!-- Generator: Adobe Illustrator 16.0.0, SVG Export Plug-In . SVG Version: 6.00 Build 0)  -->
<!DOCTYPE svg PUBLIC "-//W3C//DTD SVG 1.1//EN" "http://www.w3.org/Graphics/SVG/1.1/DTD/svg11.dtd">
<svg version="1.1" id="Capa_1" xmlns="http://www.w3.org/2000/svg" xmlns:xlink="http://www.w3.org/1999/xlink" x="0px" y="0px"
	 width="73.956px" height="73.956px" viewBox="0 0 73.956 73.956" style="enable-background:new 0 0 73.956 73.956;"
	 xml:space="preserve">
<g>
	<g>
		<g>
			<path d="M56.859,66.005c-4.502,0-8.941-1.092-12.178-2.995l-0.578-0.343c-0.769-0.446-1.125-1.396-0.84-2.25l2.284-6.962
				c0.195-0.568,0.616-0.998,1.162-1.2c0.653-0.226,1.229-0.122,1.72,0.208l0.883,0.577c1.715,1.123,4.857,2.33,7.705,2.33
				c1.762,0,4.719-0.386,4.719-2.974c0-1.424-0.393-2.66-5.352-4.49c-9.869-3.521-11.943-9.252-11.943-13.438
				c0-8.245,6.574-14.004,15.986-14.004c3.866,0,7.918,1.033,10.838,2.762l0.578,0.342c0.776,0.464,1.125,1.418,0.832,2.27
				l-2.303,6.701c-0.195,0.566-0.629,0.999-1.191,1.189c-0.519,0.178-1.142,0.114-1.627-0.186l-0.894-0.563
				c-0.854-0.543-3.179-1.8-6.392-1.8c-1.701,0-3.688,0.653-3.688,2.494c0,1.112,0.385,1.987,5.536,3.948
				c8.076,3.076,11.839,7.568,11.839,14.143C73.957,60.415,67.245,66.005,56.859,66.005z M46.383,60.527
				c2.771,1.576,6.577,2.478,10.477,2.478c8.695,0,14.098-4.308,14.098-11.241c0-5.304-2.963-8.695-9.907-11.338
				c-5.06-1.927-7.468-3.429-7.468-6.752c0-3.235,2.75-5.494,6.688-5.494c3.688,0,6.463,1.347,7.713,2.091l1.57-4.57
				c-2.464-1.402-5.855-2.235-9.125-2.235c-7.646,0-12.986,4.525-12.986,11.004c0,4.62,3.447,8.292,9.968,10.619
				c4.53,1.673,7.327,3.476,7.327,7.312c0,2.887-2.027,5.973-7.719,5.973c-3.547,0-7.021-1.381-9.061-2.637L46.383,60.527z"/>
		</g>
		<g>
			<path d="M23.322,32.632c-0.112,0-0.225-0.003-0.367-0.009l-0.022-0.001l-12.614,0.002V15.319l13.132,0.026
				c4.797,0,9.64,2.605,9.64,8.426c0.047,2.607-0.693,4.721-2.2,6.257c-2.163,2.204-4.744,2.402-6.629,2.547l-0.466,0.037
				C23.609,32.627,23.466,32.632,23.322,32.632z M23.203,29.629l0.12,0.003c0.071,0,0.141-0.003,0.234-0.011l0.473-0.037
				c1.723-0.132,3.346-0.257,4.721-1.657c0.922-0.94,1.374-2.33,1.341-4.129c0-5.191-5.533-5.453-6.643-5.453L13.32,18.324v11.299
				l9.855-0.001L23.203,29.629z"/>
		</g>
		<g>
			<path d="M18.093,66.005c-0.705,0-1.404-0.012-2.151-0.032L2.271,65.934c-0.6,0-1.167-0.232-1.594-0.656
				C0.238,64.836,0,64.262,0,63.654V10.232c0-1.256,1.022-2.277,2.279-2.277l16.585-0.004c8.119,0,25.011,0,25.437,15.249
				c0.137,4.924-2.227,9.039-6.687,11.701c4.297,2.408,6.504,6.849,6.563,13.222c0.043,4.529-1.39,8.292-4.256,11.186
				C35.52,63.752,28.175,66.005,18.093,66.005z M2.999,62.938l12.987,0.037c0.755,0.02,1.429,0.03,2.107,0.03
				c9.252,0,15.879-1.954,19.698-5.81c2.282-2.303,3.421-5.346,3.387-9.045c-0.054-5.782-1.93-9.299-5.904-11.07l-4.518-2.025
				l4.413-2.23c4.187-2.125,6.25-5.336,6.134-9.541c-0.285-10.236-9.177-12.333-22.438-12.333L3,10.955L2.999,62.938L2.999,62.938z"
				/>
		</g>
		<g>
			<path d="M23.684,57.369c-0.249,0-0.429-0.006-0.656-0.018L10.319,57.35V40.006l13.059,0.064c4.831,0,9.712,2.604,9.712,8.424
				c0.047,2.607-0.693,4.722-2.201,6.256C28.569,57.113,25.078,57.369,23.684,57.369z M13.319,54.35l9.782,0.004
				c0.249,0.01,0.389,0.016,0.583,0.016c0.792,0,3.498-0.124,5.065-1.721c0.922-0.939,1.374-2.328,1.341-4.127
				c0-5.189-5.598-5.451-6.72-5.451l-10.052-0.049L13.319,54.35L13.319,54.35z"/>
		</g>
	</g>
</g>
<g>
</g>
<g>
</g>
<g>
</g>
<g>
</g>
<g>
</g>
<g>
</g>
<g>
</g>
<g>
</g>
<g>
</g>
<g>
</g>
<g>
</g>
<g>
</g>
<g>
</g>
<g>
</g>
<g>
</g>
</svg>
